#!OML:ASF F:\VICON\USERDATA\INSTALL\rory3\rory3.ASF
:FULLY-SPECIFIED
:DEGREES
20
root 0.5044278607383572 18.721653269017335 -13.506905477130166 3.067689445398309 0.5097595374329751 -1.096525992551642
lfemur -18.687069922320575 -0.6228399606638144 -24.229368288831857
ltibia 36.90772775965877
lfoot 1.356434520784566 -7.473301765772986
ltoes -3.539850518985059
rfemur -16.90164914871567 -1.0152464746758054 26.737815528501265
rtibia 116.78421113518945
rfoot 21.55241578357711 -8.194359703398966
rtoes 6.812813870184264
lowerback 15.086407813649263 1.516002459721741 0.5602689895842333
upperback -1.2383904066247198 2.341637131005881 0.5301192395341527
thorax -9.968703146464101 1.0721832441824664 0.08927996036960373
lowerneck -22.02514057014194 -3.8379558678091525 -1.7352889958583582
upperneck 13.800210051478048 -4.830813955962184 1.8373662959559542
head 7.817487572560751 -2.336337752335506 0.2661114816364116
lclavicle -1.7288340553923125e-15 1.7836277220852514e-15
lhumerus -62.47095938714349 -7.877009369634605 94.85402955867463
lradius 101.14392727684574
lwrist 31.423495833269847
lhand -25.02980608824281 -1.9012473310113285
lfingers 7.12502
lthumb 1.4827299631521198 28.088133048479644
rclavicle -1.7288340553923125e-15 1.7836277220852514e-15
rhumerus -54.04642374385339 6.051907576524675 -96.0470900721169
rradius 105.78430570698062
rwrist -7.966730938111725
rhand -16.10476363291109 38.51722656873773
rfingers 7.12502
rthumb 10.099070328380973 8.79169395671968
21
root 0.3677911520667414 18.341880585434417 -0.6672755921556828 1.7574892265185595 0.11478566386422251 -0.3964579653709306
lfemur -14.126908730808818 -1.1109565654849776 -26.15114574023635
ltibia 44.78672069216684
lfoot -8.233158932610111 -6.144468007961066
ltoes -6.547135102181709
rfemur -28.038531780488174 -3.28444757928883 26.04808560546342
rtibia 106.80633354434083
rfoot 14.449599782354634 -5.6896832162898185
rtoes 10.135165070063003
lowerback 16.075377245119128 1.2768685353937173 -0.3658237565934499
upperback -0.9944288508694459 1.857968001722071 0.012104234685389237
thorax -10.050176547152 0.8853277063493894 0.5074055966020419
lowerneck -20.341621354684232 -3.0798224727805397 -1.8474618209263869
upperneck 14.304846888064455 -3.9603948621939966 2.014551135643565
head 7.824601794021213 -1.828406671721033 0.43122852929879407
lclavicle -2.3701800278737566e-15 1.3184384255647925e-15
lhumerus -59.04959366063676 -11.505162824092942 95.81899759458894
lradius 102.56537122946494
lwrist 32.1554756169112
lhand -24.161787160163346 2.994428906512211
lfingers 7.12502
lthumb 2.3211699033505626 32.95627407084767
rclavicle -2.3701800278737566e-15 1.3184384255647925e-15
rhumerus -49.57389871608603 7.268672362430001 -96.23543505836153
rradius 106.768736591729
rwrist -8.988382670971573
rhand -15.271226261417858 39.09754846175649
rfingers 7.12502
rthumb 10.903310345740163 9.138876881743647
22
root 0.3430789117837306 18.215978971841043 -0.15182336537162655 1.7787447690256708 0.6716501521666256 0.06268541463830779
lfemur -9.556799102365432 -0.4309775124219256 -27.064644517619875
ltibia 46.36534840531675
lfoot -11.8619497356706 -4.908137098275495
ltoes -4.810044042607497
rfemur -35.41178146250315 -4.037657316025731 25.807878290602336
rtibia 104.63747209172529
rfoot 8.469374148153147 -6.51024281212627
rtoes 5.80614123720423
lowerback 16.79061738074078 0.8375385983916451 -0.929674951186443
upperback -0.6936561905444198 1.1692963831990428 0.21457354281688823
thorax -10.110772576249202 0.5982280494798504 1.4379320327301484
lowerneck -20.02792566555168 -2.90157622782931 -1.9016324702148766
upperneck 14.557863475850539 -3.654666638994007 2.0937600586874696
head 7.856110181822284 -1.7060448286782952 0.4953749537817521
lclavicle -1.2503918866606382e-15 2.1306575507238065e-15
lhumerus -52.53708636550229 -13.730296111912164 96.59041926368793
lradius 105.45618494983698
lwrist 33.15835501695974
lhand -24.212946165249797 2.8725165336243474
lfingers 7.12502
lthumb 2.2717500844942995 32.83765336504354
rclavicle -1.2503918866606382e-15 2.1306575507238065e-15
rhumerus -50.7978059527284 7.57544091003701 -96.3199754460388
rradius 107.86266013330003
rwrist -9.537828412044565
rhand -15.520209763999272 39.520447442195014
rfingers 7.12502
rthumb 10.662799834327448 9.616673424635852
23
root 0.28521105725725016 18.06379716749288 1.675489431577831 2.409242842523758 1.6677569494225692 0.43948712811571955
lfemur -6.173262280741543 -0.23384237866680424 -28.129661853588786
ltibia 44.02021262666679
lfoot -14.897849051923524 -4.983587779107249
ltoes -3.8859856413969887
rfemur -40.36882369510812 -4.053986694854435 24.990790190131186
rtibia 90.85827609743572
rfoot 5.112530179550162 -8.95703974891973
rtoes -1.5715900445803785
lowerback 16.750771382286057 0.42354325404862253 -1.6590658691534486
upperback -0.5308495530368479 0.493365242637001 0.3726608562730451
thorax -9.99431188101061 0.3187815995241574 2.054609002593365
lowerneck -20.07592965379083 -3.0117352579873646 -2.0741381489881645
upperneck 14.32032663778973 -3.771148292580466 2.274442873887055
head 7.816775416663401 -1.757785694050804 0.5665655067924539
lclavicle -1.6150494687489187e-15 1.8661594278885156e-15
lhumerus -47.3403667078164 -16.566618396160685 97.22217247231347
lradius 108.64855918494766
lwrist 33.831203148720626
lhand -24.233747147555203 3.441510033194669
lfingers 7.12502
lthumb 2.2516052741471237 33.405062875148495
rclavicle -1.6150494687489187e-15 1.8661594278885156e-15
rhumerus -52.289558985075374 8.109710820178686 -96.80104727606029
rradius 108.74696809968081
rwrist -10.149610905041452
rhand -15.727240122378051 39.71199833101357
rfingers 7.12502
rthumb 10.463055206532118 9.83909358477818
